Coordinates
version=1
nRows=12
nColumns=38
inDegrees=yes

Units are S.I. units (second, meters, Newtons, ...)
Angles are in degrees.

endheader
time	pelvis_tilt	pelvis_list	pelvis_rotation	pelvis_tx	pelvis_ty	pelvis_tz	hip_flexion_r	hip_adduction_r	hip_rotation_r	knee_angle_r	ankle_angle_r	subtalar_angle_r	mtp_angle_r	hip_flexion_l	hip_adduction_l	hip_rotation_l	knee_angle_l	ankle_angle_l	subtalar_angle_l	mtp_angle_l	lumbar_extension	lumbar_bending	lumbar_rotation	arm_flex_r	arm_add_r	arm_rot_r	elbow_flex_r	pro_sup_r	wrist_flex_r	wrist_dev_r	arm_flex_l	arm_add_l	arm_rot_l	elbow_flex_l	pro_sup_l	wrist_flex_l	wrist_dev_l
      3.41000000	     -2.15886351	      5.31843494	      5.20056499	     -0.53597664	      0.91268133	     -0.23223381	      6.24535460	     -3.39426122	     -2.75460564	    -60.20494164	    -17.21544996	    -14.74241349	     22.93584239	     20.01006172	     10.31307790	      3.61935649	    -25.61070602	      3.11350438	      2.61581052	      2.43185979	     -4.33103022	     -5.07898379	     -2.46649833	     -4.90567310	    -17.22332563	     10.12154100	     26.23389469	     86.51662706	      0.00000000	      0.00000000	     -2.30016483	    -15.19073948	     19.66582359	     18.06984113	     86.51662706	      0.00000000	      0.00000000
      3.42000000	     -2.19389075	      5.27376536	      4.95974909	     -0.52491980	      0.91407342	     -0.23210805	      8.27091089	     -3.28667580	     -2.35388349	    -62.11669931	    -16.30220302	    -15.49888068	     21.94232575	     19.09367850	     10.02698674	      3.00304849	    -25.27753929	      3.89625422	      3.55360304	      2.16242833	     -4.41922068	     -5.08956850	     -2.62086402	     -4.72317304	    -17.10542553	     10.86998795	     25.37496996	     86.51662706	      0.00000000	      0.00000000	     -2.19867758	    -15.35126912	     19.09834780	     18.88968463	     86.51662706	      0.00000000	      0.00000000
      3.43000000	     -2.22033349	      5.18418875	      4.76002107	     -0.51386314	      0.91549315	     -0.23204845	     10.25112093	     -3.14060302	     -2.05903801	    -63.69100920	    -15.27442545	    -15.82670665	     21.05199409	     18.12830419	      9.75741299	      2.64085999	    -24.88320210	      4.60131753	      4.26979158	      1.93003881	     -4.51241783	     -5.03216852	     -2.82126546	     -4.59599831	    -17.00459919	     11.53080631	     24.62616073	     86.51662706	      0.00000000	      0.00000000	     -2.09351352	    -15.50179310	     18.57951243	     19.69965921	     86.51662706	      0.00000000	      0.00000000
      3.44000000	     -2.23821510	      5.05523623	      4.61056623	     -0.50278534	      0.91691604	     -0.23209512	     12.16733621	     -2.96763325	     -1.85515692	    -64.92225910	    -14.19070514	    -15.73578130	     20.28735005	     17.11923679	      9.51065912	      2.54089988	    -24.44227644	      5.24234060	      4.74552448	      1.73838244	     -4.60587909	     -4.91119597	     -3.06011317	     -4.54346131	    -16.92159274	     12.07135200	     23.99767353	     86.51662706	      0.00000000	      0.00000000	     -1.98328374	    -15.63926541	     18.11169785	     20.50109704	     86.51662706	      0.00000000	      0.00000000
      3.45000000	     -2.24683100	      4.89141593	      4.51451175	     -0.49169084	      0.91831454	     -0.23226769	     14.00471377	     -2.78007158	     -1.72937098	    -65.81209123	    -13.08185100	    -15.27931647	     19.65338315	     16.07498169	      9.28413981	      2.67975042	    -23.96914935	      5.83113801	      4.98842297	      1.58803930	     -4.69681078	     -4.73246826	     -3.32954381	     -4.57361017	    -16.85695146	     12.46910100	     23.49155157	     86.51662706	      0.00000000	      0.00000000	     -1.86645658	    -15.76187211	     17.69444655	     21.29602128	     86.51662706	      0.00000000	      0.00000000
      3.46000000	     -2.24513785	      4.69662253	      4.46874441	     -0.48058023	      0.91965864	     -0.23254891	     15.75249810	     -2.58935478	     -1.67314051	    -66.36655234	    -11.96235574	    -14.54441156	     19.13987154	     15.00531572	      9.06923754	      3.00924979	    -23.47627397	      6.37686685	      5.02981244	      1.47638389	     -4.78416415	     -4.50280622	     -3.62186200	     -4.68394472	    -16.81047754	     12.71268263	     23.10165523	     86.51662706	      0.00000000	      0.00000000	     -1.74190511	    -15.86975889	     17.32537524	     22.08616287	     86.51662706	      0.00000000	      0.00000000
      3.47000000	     -2.23231442	      4.47506084	      4.46490135	     -0.46944192	      0.92092736	     -0.23290155	     17.40382924	     -2.40396126	     -1.68170096	    -66.59402438	    -10.84208245	    -13.63868234	     18.72509036	     13.91915121	      8.85478967	      3.46603048	    -22.97279016	      6.88667562	      4.91900423	      1.39801872	     -4.86810511	     -4.22982861	     -3.92989321	     -4.86384373	    -16.78085245	     12.80172637	     22.81462446	     86.51662706	      0.00000000	      0.00000000	     -1.60938885	    -15.96531485	     17.00109416	     22.87240193	     86.51662706	      0.00000000	      0.00000000
      3.48000000	     -2.20823825	      4.23158535	      4.49144199	     -0.45826701	      0.92211196	     -0.23329322	     18.95496604	     -2.22855463	     -1.75158225	    -66.50380888	     -9.73434202	    -12.67590620	     18.38041283	     12.82301538	      8.63012029	      3.98210613	    -22.46364961	      7.36708610	      4.71562219	      1.34565546	     -4.94941235	     -3.92193336	     -4.24726334	     -5.09791522	    -16.76543697	     12.74566851	     22.61163244	     86.51662706	      0.00000000	      0.00000000	     -1.46983653	    -16.05285059	     16.71795899	     23.65462124	     86.51662706	      0.00000000	      0.00000000
      3.49000000	     -2.17371099	      3.97142625	      4.53638801	     -0.44706235	      0.92319917	     -0.23369927	     20.40415535	     -2.06466498	     -1.87783362	    -66.10527462	     -8.65897666	    -11.76288848	     18.07510008	     11.72036022	      8.38697521	      4.49485088	    -21.94957379	      7.82527034	      4.48117967	      1.31128731	     -5.02900864	     -3.58832212	     -4.56856998	     -5.36933358	    -16.76031074	     12.56176038	     22.47063676	     86.51662706	      0.00000000	      0.00000000	     -1.32530699	    -16.13779615	     16.47251526	     24.43184333	     86.51662706	      0.00000000	      0.00000000
      3.50000000	     -2.13043052	      3.70025882	      4.58995293	     -0.43584383	      0.92415996	     -0.23409614	     21.75056862	     -1.91193159	     -2.05242852	    -65.40745614	     -7.64108348	    -10.98886749	     17.78056862	     10.61156561	      8.12034705	      4.95497871	    -21.42812050	      8.26957049	      4.27112302	      1.28745658	     -5.10771954	     -3.23893680	     -4.88946184	     -5.66244156	    -16.76060412	     12.27259430	     22.36878245	     86.51662706	      0.00000000	      0.00000000	     -1.17857673	    -16.22576946	     16.26159830	     25.20248676	     86.51662706	      0.00000000	      0.00000000
      3.51000000	     -2.08051911	      3.42469768	      4.64620715	     -0.42461649	      0.92495406	     -0.23446360	     22.99366598	     -1.76943708	     -2.26439406	    -64.41893240	     -6.70693644	    -10.41817862	     17.47360348	      9.49456201	      7.82878430	      5.33148316	    -20.89565922	      8.70901586	      4.12838850	      1.26841996	     -5.18630085	     -2.88424450	     -5.20669663	     -5.96429247	    -16.76105787	     11.90350037	     22.28461120	     86.51662706	      0.00000000	      0.00000000	     -1.03245383	    -16.32173963	     16.08216534	     25.96459206	     86.51662706	      0.00000000	      0.00000000
      3.52000000	     -2.02574622	      3.15243160	      4.70321748	     -0.41336573	      0.92554362	     -0.23478703	     24.13269283	     -1.63731439	     -2.50132744	    -63.14805945	     -5.87889208	    -10.08636514	     17.13826329	      8.36622282	      7.51477475	      5.61303451	    -20.34955302	      9.15205633	      4.07922035	      1.25104461	     -5.26573315	     -2.53488238	     -5.51822633	     -6.26515441	    -16.75663006	     11.48014056	     22.19979529	     86.51662706	      0.00000000	      0.00000000	     -0.88907208	    -16.42930172	     15.93102084	     26.71590315	     86.51662706	      0.00000000	      0.00000000
